<svg id="Capa_1" enable-background="new 0 0 512 512" height="512" viewBox="0 0 512 512" width="512" xmlns="http://www.w3.org/2000/svg"><g><path d="m497 0h-482c-8.284 0-15 6.716-15 15v482c0 8.284 6.716 15 15 15h482c8.284 0 15-6.716 15-15v-482c0-8.284-6.716-15-15-15zm-226 451.252v30.748h-30v-30.748c9.992.997 19.998.998 30 0zm-15-29.252c-66.168 0-120-53.832-120-120s53.832-120 120-120 120 53.832 120 120-53.832 120-120 120zm-137.024-181h-88.976v-30h106.843c-7.059 9.221-13.075 19.278-17.867 30zm-88.976 30h79.229c-2.111 10.006-3.229 20.375-3.229 31 0 35.362 12.308 67.9 32.854 93.571l-24.273 25.429h-84.581zm211-118.252v-122.748h30v122.748c-9.992-.997-19.998-.998-30 0zm241 148.252h-76.013c-.251-38.179-14.833-73.016-38.633-99.389l75.168-80.611h39.478zm-78.824 30h78.824v30h-88.1c4.095-9.534 7.225-19.575 9.276-30zm78.824-240h-46c-4.16 0-8.134 1.728-10.971 4.77l-79.886 85.669c-13.222-9.803-28.105-17.485-44.144-22.54v-128.899h181v61zm-271-61v128.899c-15.797 4.978-30.469 12.509-43.542 22.101h-137.458v-151zm-181 421h91c4.1 0 8.02-1.678 10.851-4.643l27.993-29.327c14.886 12.464 32.214 22.101 51.156 28.07v36.9h-181zm271 31v-36.899c30.599-9.644 56.993-28.851 75.665-54.101h105.335v91z"/><path d="m269.737 219.485c-5.233-11.933-22.232-11.955-27.475 0l-60.067 136.981c-4.994 11.391 5.296 23.589 17.369 20.578l56.482-14.093 56.384 14.092c12.133 3.036 22.345-9.24 17.374-20.576zm-10.05 113.453c-2.385-.596-4.882-.597-7.269-.001l-30.482 7.606 34.064-77.683 34.059 77.668z"/></g></svg>