<svg viewBox="0 0 640 640" xmlns="http://www.w3.org/2000/svg" xmlns:xlink="http://www.w3.org/1999/xlink"><style>:root&gt;svg{display:none}:root&gt;svg:target{display:block}</style><svg viewBox="0 0 512 512" id="sprite--direction" xmlns="http://www.w3.org/2000/svg"><path d="M497 0H15C6.716 0 0 6.716 0 15v482c0 8.284 6.716 15 15 15h482c8.284 0 15-6.716 15-15V15c0-8.284-6.716-15-15-15zM271 451.252V482h-30v-30.748a150.75 150.75 0 0030 0zM256 422c-66.168 0-120-53.832-120-120s53.832-120 120-120 120 53.832 120 120-53.832 120-120 120zM118.976 241H30v-30h106.843a150.155 150.155 0 00-17.867 30zM30 271h79.229A150.042 150.042 0 00106 302c0 35.362 12.308 67.9 32.854 93.571L114.581 421H30zm211-118.252V30h30v122.748a150.75 150.75 0 00-30 0zM482 301h-76.013c-.251-38.179-14.833-73.016-38.633-99.389L442.522 121H482zm-78.824 30H482v30h-88.1a148.733 148.733 0 009.276-30zM482 91h-46c-4.16 0-8.134 1.728-10.971 4.77l-79.886 85.669a149.66 149.66 0 00-44.144-22.54V30h181v61zM211 30v128.899c-15.797 4.978-30.469 12.509-43.542 22.101H30V30zM30 451h91c4.1 0 8.02-1.678 10.851-4.643l27.993-29.327c14.886 12.464 32.214 22.101 51.156 28.07V482H30zm271 31v-36.899c30.599-9.644 56.993-28.851 75.665-54.101H482v91z"/><path d="M269.737 219.485c-5.233-11.933-22.232-11.955-27.475 0l-60.067 136.981c-4.994 11.391 5.296 23.589 17.369 20.578l56.482-14.093 56.384 14.092c12.133 3.036 22.345-9.24 17.374-20.576zm-10.05 113.453a15 15 0 00-7.269-.001l-30.482 7.606L256 262.86l34.059 77.668z"/></svg><svg viewBox="0 0 499.789 499.789" id="sprite--distance" xmlns="http://www.w3.org/2000/svg"><path d="M188.495 189.045c0-51.967-42.279-94.246-94.247-94.246C42.28 94.799 0 137.079 0 189.045c0 15.229 3.635 29.623 10.075 42.367L94.247 404.99l84.184-173.604c6.434-12.737 10.064-27.122 10.064-42.341zm-94.247 52.157c-28.759 0-52.158-23.397-52.158-52.156 0-28.758 23.399-52.156 52.158-52.156 28.758 0 52.155 23.398 52.155 52.156s-23.398 52.156-52.155 52.156zM442.549 97.469c-31.564 0-57.24 25.679-57.24 57.241a56.885 56.885 0 006.119 25.731l51.121 105.422 51.129-105.438a56.906 56.906 0 006.111-25.716c0-31.561-25.678-57.24-57.24-57.24zm0 88.918c-17.467 0-31.68-14.211-31.68-31.677s14.213-31.677 31.68-31.677c17.465 0 31.676 14.211 31.676 31.677s-14.211 31.677-31.676 31.677zm-192.387 70.599l-9.78-.172-4.906 10.17-41.967 86.996-60.885-1.332-25.38 52.342 101.25-2.213 17.903-.392 4.645-14.961 30.765-99.074 169.504-2.965-12.34-25.446z"/></svg><svg viewBox="0 0 480.003 480" id="sprite--distance-2" xmlns="http://www.w3.org/2000/svg"><path d="M478.688 467.61l-168-256A7.993 7.993 0 00304 208H176a8.003 8.003 0 00-6.688 3.61l-168 256A7.999 7.999 0 008 480h464a8 8 0 007.043-4.2 7.99 7.99 0 00-.355-8.19zM180.32 224h7.739L62.402 464H22.824zM248 464v-32h-16v32H80.496l125.602-240H232v8h16v-8h25.883L399.48 464zm169.602 0L292 224h7.738l157.438 240zm0 0"/><path d="M232 240h16v16h-16zm0 32h16v24h-16zm0 40h16v32h-16zm0 56h16v40h-16zm8-176a7.988 7.988 0 006.145-2.871C252.883 181.059 312 109.168 312 72c0-39.762-32.234-72-72-72-39.762 0-72 32.238-72 72 0 37.168 59.121 109.059 65.855 117.129A8 8 0 00240 192zm0-176c30.914.043 55.96 25.09 56 56 0 23.848-36.094 74.242-56 99.313C220.09 146.25 184 95.874 184 72c.043-30.91 25.09-55.957 56-56zm0 0"/><path d="M272 64c0-17.672-14.324-32-32-32-17.672 0-32 14.328-32 32 0 17.676 14.328 32 32 32 17.676 0 32-14.324 32-32zm-48 0c0-8.836 7.164-16 16-16 8.84 0 16 7.164 16 16 0 8.84-7.16 16-16 16-8.836 0-16-7.16-16-16zm0 0"/></svg><svg viewBox="0 0 64 64" id="sprite--infrastructure" xmlns="http://www.w3.org/2000/svg"><circle cx="32" cy="32" r="7"/><path d="M42.773 29.769a10.876 10.876 0 00-1.582-3.803 1 1 0 01.041-1.157l1.463-1.913-1.59-1.59-1.913 1.463a.998.998 0 01-1.157.041 10.876 10.876 0 00-3.803-1.582 1.002 1.002 0 01-.79-.847L33.125 18h-2.249l-.317 2.38a1 1 0 01-.79.847 10.876 10.876 0 00-3.803 1.582c-.355.233-.82.217-1.157-.041l-1.913-1.463-1.59 1.59 1.463 1.913a1 1 0 01.041 1.157 10.876 10.876 0 00-1.582 3.803 1.002 1.002 0 01-.847.79L18 30.875v2.249l2.38.317a1 1 0 01.847.79 10.876 10.876 0 001.582 3.803 1 1 0 01-.041 1.157l-1.463 1.913 1.59 1.59 1.913-1.463a1.002 1.002 0 011.157-.041 10.876 10.876 0 003.803 1.582c.417.086.733.426.79.847L30.875 46h2.249l.317-2.38a1 1 0 01.79-.847 10.876 10.876 0 003.803-1.582 1 1 0 011.157.041l1.913 1.463 1.59-1.59-1.463-1.913a1 1 0 01-.041-1.157 10.876 10.876 0 001.582-3.803c.086-.417.426-.733.847-.79L46 33.125v-2.249l-2.38-.317a1.003 1.003 0 01-.847-.79zM32 41c-4.962 0-9-4.038-9-9s4.038-9 9-9 9 4.038 9 9-4.038 9-9 9zm23-12h6v6h-6zm0 20h6v6h-6zm0-40h6v6h-6zM3 29h6v6H3zm0 20h6v6H3zM3 9h6v6H3zm12 3a1 1 0 00-1-1h-3v2h2v18h-2v2h2v18h-2v2h3a1 1 0 001-1V33h1v-2h-1zm34 0v19h-1v2h1v19a1 1 0 001 1h3v-2h-2V33h2v-2h-2V13h2v-2h-3a1 1 0 00-1 1z"/></svg><svg viewBox="0 0 512.01 512.01" id="sprite--location" xmlns="http://www.w3.org/2000/svg"><path d="M388.89 313.055c-11.435-2.773-22.955 4.373-25.664 15.829-2.731 11.456 4.373 22.955 15.829 25.664 66.261 15.723 90.283 38.976 90.283 50.795 0 25.493-85.077 64-213.333 64-128.235 0-213.333-38.507-213.333-64 0-11.819 24.043-35.072 90.261-50.795 11.477-2.709 18.56-14.208 15.829-25.664-2.709-11.456-14.229-18.603-25.664-15.829C43.717 331.871.005 364.639.005 405.343c0 70.016 128.811 106.667 256 106.667 127.211 0 256-36.651 256-106.667 0-40.704-43.712-73.472-123.115-92.288zM256.015 170.681c11.776 0 21.333-9.557 21.333-21.333s-9.557-21.333-21.333-21.333-21.333 9.557-21.333 21.333 9.557 21.333 21.333 21.333z"/><path d="M228.239 397.518l8.683 17.365c3.627 7.232 11.008 11.797 19.093 11.797s15.467-4.565 19.093-11.797l18.389-36.779c22.379-44.779 49.984-88.149 76.672-130.091l12.16-19.136c15.061-23.808 23.019-51.307 23.019-79.531 0-42.496-18.197-83.115-49.92-111.445C323.727 9.592 281.082-3.975 238.565 1.017c-66.39 7.552-121.216 61.013-130.411 127.104-5.44 39.168 4.352 78.059 27.541 109.547 36.182 49.023 64.427 103.573 92.544 159.85zm27.776-312.171c35.285 0 64 28.715 64 64s-28.715 64-64 64-64-28.715-64-64 28.715-64 64-64z"/></svg><svg viewBox="0 0 242.667 242.667" id="sprite--telegram" xmlns="http://www.w3.org/2000/svg"><path d="M162.443 86.061l-54.044 50.235a11.199 11.199 0 00-3.473 6.704l-1.839 13.641c-.245 1.82-2.806 2.003-3.308.237l-7.08-24.875a6.593 6.593 0 012.883-7.418l65.484-40.334c1.175-.723 2.388.87 1.377 1.81zM242.667 0v242.667H0V0h242.667zm-54.002 58.301l-137.51 53.047c-3.39 1.308-3.364 6.114.04 7.385L84.7 131.24l12.97 41.708c.831 2.671 4.099 3.656 6.267 1.888l18.677-15.226a5.566 5.566 0 016.788-.19l33.689 24.459c2.319 1.684 5.604.414 6.187-2.392l24.675-118.699c.637-3.061-2.37-5.613-5.288-4.487z"/></svg><svg viewBox="0 0 455.731 455.731" id="sprite--viber" xmlns="http://www.w3.org/2000/svg"><path d="M296.076 105.381c-45.26-8.61-91.16-8.61-136.43 0-19.8 4.41-44.71 28.28-49.58 47.48-8.1 37.15-8.1 74.81 0 111.96 4.87 19.2 29.78 43.07 49.58 47.48l.015.003a1.876 1.876 0 011.525 1.836v54.422c0 2.72 3.32 4.06 5.21 2.09l25.85-26.53 24.303-24.948a1.853 1.853 0 011.38-.559c26.099.723 52.226-1.385 78.147-6.313 19.8-4.41 44.72-28.28 49.58-47.48 8.11-37.15 8.11-74.81 0-111.96-4.861-19.201-29.77-43.071-49.58-47.481zm.69 162.211c-3.96 8.408-9.722 15.403-18.034 19.868-2.345 1.26-5.148 1.667-7.795 2.482-3.044-.924-5.945-1.545-8.639-2.663-27.916-11.582-53.608-26.524-73.959-49.429-11.573-13.025-20.632-27.73-28.288-43.292-3.631-7.38-6.691-15.049-9.81-22.668-2.845-6.948 1.345-14.126 5.756-19.361 4.139-4.913 9.465-8.673 15.233-11.444 4.502-2.163 8.943-.916 12.231 2.9 7.108 8.25 13.637 16.922 18.924 26.485 3.251 5.882 2.359 13.072-3.533 17.075-1.432.973-2.737 2.115-4.071 3.214-1.17.963-2.271 1.936-3.073 3.24-1.466 2.385-1.536 5.2-.592 7.794 7.266 19.968 19.513 35.495 39.611 43.858 3.217 1.338 6.446 2.896 10.151 2.464 6.205-.725 8.214-7.531 12.562-11.087 4.25-3.475 9.681-3.521 14.259-.624 4.579 2.898 9.018 6.009 13.43 9.153 4.331 3.086 8.643 6.105 12.638 9.623 3.839 3.382 5.162 7.82 2.999 12.412zm-36.044-65.069c-1.733.031-1.052-.003-.393-.022-2.793-.098-4.312-1.742-4.612-4.415-.219-1.953-.392-3.932-.858-5.832-.918-3.742-2.907-7.21-6.054-9.503-1.486-1.083-3.17-1.873-4.934-2.381-2.241-.647-4.568-.469-6.804-1.017-2.428-.594-3.771-2.561-3.39-4.839.347-2.073 2.364-3.691 4.629-3.527 14.157 1.022 24.275 8.341 25.719 25.008.102 1.176.222 2.418-.039 3.543-.424 1.829-1.731 2.781-3.052 2.954.108.002.087.011-.212.031zm-8.803-38.119c-4.344-2.127-9.042-3.449-13.804-4.237-2.081-.344-4.184-.553-6.275-.844-2.534-.352-3.886-1.967-3.767-4.464.112-2.34 1.822-4.023 4.372-3.879 8.38.476 16.474 2.287 23.924 6.232 15.15 8.023 23.804 20.687 26.33 37.597.115.766.298 1.525.356 2.294.144 1.898.233 3.799.379 6.302-.06.456-.092 1.528-.358 2.538-.969 3.666-6.527 4.125-7.807.425-.379-1.098-.436-2.347-.438-3.529-.013-7.734-1.694-15.46-5.594-22.189-4.009-6.914-10.135-12.728-17.318-16.246zm46.812 52.261c-2.927.035-4.244-2.414-4.434-5.039-.376-5.196-.636-10.415-1.353-15.568-3.78-27.201-25.47-49.705-52.544-54.534-4.074-.727-8.245-.918-12.371-1.351-2.609-.274-6.026-.432-6.604-3.675-.485-2.719 1.81-4.884 4.399-5.023.704-.038 1.412-.006 2.119-.003 35.065.983 2.14.076.094.005 36.472 1.063 66.417 25.283 72.839 61.351 1.095 6.151 1.485 12.44 1.972 18.683.204 2.625-1.283 5.12-4.117 5.154z"/><path d="M0 0v455.731h455.731V0H0zm371.996 270.781l-.09.36c-7.28 29.43-40.1 61.01-70.24 67.58l-.34.07c-24.37 4.65-48.92 6.97-73.46 6.97-7.223 0-14.446-.225-21.665-.629l-33.285 34.599c-8.24 8.58-22.73 2.74-22.73-9.15v-32.852c-29.015-8.286-59.391-38.414-66.37-66.589l-.08-.36c-9-41.1-9-82.78 0-123.88l.08-.36c7.29-29.43 40.11-61.01 70.24-67.58l.35-.07c48.74-9.3 98.17-9.3 146.92 0l.34.07c30.14 6.57 62.96 38.15 70.24 67.58l.09.36c9 41.101 9 82.781 0 123.881z"/></svg><svg viewBox="0 0 455.731 455.731" id="sprite--whatsapp" xmlns="http://www.w3.org/2000/svg"><path d="M228.071 95.321c-72.877 0-132.167 59.29-132.167 132.167 0 25.393 7.217 50.052 20.869 71.311l3.281 5.109-12.855 45.658 47.238-12.16 4.872 2.975c20.654 12.609 44.432 19.274 68.762 19.274 72.877 0 132.166-59.29 132.166-132.167S300.948 95.321 228.071 95.321zm81.046 172.788l-1.649 7.702c-1.86 8.69-7.021 16.377-14.508 21.166-9.453 6.047-21.706 9.016-37.28 4.612-48.333-13.667-75.667-45.667-90.333-65.667-14.667-20-20.333-40-16.667-56.333 2.459-10.954 10.465-19.359 15.472-23.708a12.492 12.492 0 018.878-3.037l10.328.563a5.352 5.352 0 014.629 3.24l15.045 35.201a5.35 5.35 0 01-.872 5.602l-13.096 15.15a3.959 3.959 0 00-.499 4.419c17.248 33.224 48.682 46.389 58.066 49.687a3.92 3.92 0 004.407-1.312l13.703-17.764a5.35 5.35 0 016.477-1.591l34.905 16.089a5.352 5.352 0 012.994 5.981z"/><path d="M0 0v455.731h455.731V0H0zm228.071 386.655c-27.347 0-54.125-7-77.814-20.292L68.494 387.41l22.323-79.284c-14.355-24.387-21.913-52.134-21.913-80.638 0-87.765 71.402-159.167 159.167-159.167s159.166 71.402 159.166 159.167-71.401 159.167-159.166 159.167z"/></svg></svg>